<svg width="555" height="684" viewBox="0 0 555 684" fill="none" xmlns="http://www.w3.org/2000/svg">
<g filter="url(#filter0_f_1_1464)">
<path d="M162.36 43.2279C173.735 8.21812 223.265 8.21811 234.64 43.2279L288.867 210.121C293.954 225.777 308.544 236.378 325.007 236.378L500.488 236.378C537.3 236.378 552.605 283.483 522.824 305.121L380.857 408.266C367.538 417.943 361.965 435.094 367.053 450.751L421.279 617.644C432.655 652.654 392.584 681.767 362.803 660.129L220.836 556.984C207.517 547.307 189.483 547.307 176.164 556.984L34.1967 660.129C4.4156 681.767 -35.6546 652.654 -24.2793 617.644L29.9475 450.751C35.0347 435.094 29.4617 417.943 16.1432 408.266L-125.824 305.121C-155.605 283.483 -140.3 236.378 -103.488 236.378L71.993 236.378C88.4556 236.378 103.046 225.777 108.133 210.121L162.36 43.2279Z" fill="#1D1D1D"/>
<path d="M162.835 43.3824C174.061 8.83328 222.939 8.83327 234.165 43.3824L288.391 210.275C293.546 226.138 308.328 236.878 325.007 236.878L500.488 236.878C536.816 236.878 551.92 283.364 522.53 304.716L380.563 407.862C367.069 417.665 361.423 435.043 366.577 450.906L420.804 617.799C432.029 652.348 392.486 681.077 363.097 659.725L221.13 556.579C207.636 546.776 189.364 546.776 175.87 556.579L33.9028 659.725C4.51357 681.077 -35.0294 652.348 -23.8037 617.799L30.423 450.906C35.5772 435.043 29.9308 417.665 16.437 407.862L-125.53 304.716C-154.92 283.364 -139.816 236.878 -103.488 236.878L71.993 236.878C88.6722 236.878 103.454 226.138 108.609 210.275L162.835 43.3824Z" stroke="url(#paint0_linear_1_1464)" stroke-opacity="0.11"/>
</g>
<defs>
<filter id="filter0_f_1_1464" x="-157.761" y="0.770458" width="712.523" height="682.989" filterUnits="userSpaceOnUse" color-interpolation-filters="sRGB">
<feFlood flood-opacity="0" result="BackgroundImageFix"/>
<feBlend mode="normal" in="SourceGraphic" in2="BackgroundImageFix" result="shape"/>
<feGaussianBlur stdDeviation="8.1" result="effect1_foregroundBlur_1_1464"/>
</filter>
<linearGradient id="paint0_linear_1_1464" x1="198.5" y1="-68" x2="198.5" y2="813" gradientUnits="userSpaceOnUse">
<stop stop-color="white"/>
<stop offset="1" stop-color="white" stop-opacity="0"/>
</linearGradient>
</defs>
</svg>
