<svg width="339" height="218" viewBox="0 0 339 218" fill="none" xmlns="http://www.w3.org/2000/svg">
<g filter="url(#filter0_f_1_1463)">
<path d="M141.919 -64.1155C150.601 -90.8335 188.399 -90.8335 197.081 -64.1155L211.147 -20.8227C215.03 -8.87401 226.164 -0.784149 238.728 -0.784149H284.249C312.342 -0.784149 324.022 35.1647 301.295 51.6774L264.467 78.4338C254.303 85.8185 250.05 98.9081 253.933 110.857L267.999 154.15C276.68 180.868 246.101 203.085 223.373 186.573L186.546 159.816C176.382 152.432 162.618 152.432 152.454 159.816L115.627 186.573C92.8995 203.085 62.3195 180.868 71.0007 154.15L85.0674 110.857C88.9498 98.9082 84.6967 85.8185 74.5325 78.4338L37.7055 51.6774C14.9778 35.1647 26.6582 -0.784149 54.7512 -0.784149H100.272C112.836 -0.784149 123.97 -8.87399 127.853 -20.8227L141.919 -64.1155Z" fill="#1D1D1D"/>
<path d="M142.395 -63.961C150.926 -90.2183 188.074 -90.2184 196.605 -63.961L210.672 -20.6682C214.621 -8.51349 225.948 -0.284149 238.728 -0.284149H284.249C311.857 -0.284149 323.337 35.0449 301.001 51.2728L264.174 78.0293C253.834 85.5413 249.508 98.8566 253.457 111.011L267.524 154.304C276.055 180.561 246.003 202.396 223.667 186.168L186.84 159.412C176.5 151.9 162.5 151.9 152.16 159.412L115.333 186.168C92.9974 202.396 62.9447 180.561 71.4762 154.304L85.5429 111.011C89.4922 98.8567 85.1658 85.5413 74.8264 78.0293L37.9994 51.2729C15.6635 35.0449 27.1426 -0.284149 54.7512 -0.284149H100.272C113.052 -0.284149 124.379 -8.51347 128.328 -20.6682L142.395 -63.961Z" stroke="url(#paint0_linear_1_1463)" stroke-opacity="0.11"/>
</g>
<defs>
<filter id="filter0_f_1_1463" x="0.395557" y="-109.454" width="338.209" height="326.997" filterUnits="userSpaceOnUse" color-interpolation-filters="sRGB">
<feFlood flood-opacity="0" result="BackgroundImageFix"/>
<feBlend mode="normal" in="SourceGraphic" in2="BackgroundImageFix" result="shape"/>
<feGaussianBlur stdDeviation="12.65" result="effect1_foregroundBlur_1_1463"/>
</filter>
<linearGradient id="paint0_linear_1_1463" x1="169.5" y1="-149" x2="169.5" y2="280" gradientUnits="userSpaceOnUse">
<stop stop-color="white"/>
<stop offset="1" stop-color="white" stop-opacity="0"/>
</linearGradient>
</defs>
</svg>
